G04*
G04 #@! TF.GenerationSoftware,Altium Limited,Altium Designer,22.4.2 (48)*
G04*
G04 Layer_Color=8388736*
%FSLAX44Y44*%
%MOMM*%
G71*
G04*
G04 #@! TF.SameCoordinates,4A528D61-7CE6-41CA-A9B8-15A1ED942E6C*
G04*
G04*
G04 #@! TF.FilePolarity,Negative*
G04*
G01*
G75*
%ADD14R,0.4572X1.5240*%
%ADD15C,2.0032*%
%ADD16R,2.0032X2.0032*%
%ADD17R,1.4732X1.4732*%
%ADD18C,1.4732*%
%ADD19C,1.5532*%
%ADD20R,1.2632X1.2632*%
%ADD21C,1.2632*%
%ADD22R,1.2632X1.2632*%
%ADD23R,1.3716X1.3716*%
%ADD24C,1.3716*%
%ADD25R,1.3716X1.3716*%
%ADD26C,0.8032*%
D14*
X396650Y487553D02*
D03*
X403150D02*
D03*
X409650D02*
D03*
X416150D02*
D03*
Y528447D02*
D03*
X409650D02*
D03*
X403150D02*
D03*
X396650D02*
D03*
D15*
X423900Y723900D02*
D03*
X388900Y304800D02*
D03*
D16*
Y723900D02*
D03*
X423900Y304800D02*
D03*
D17*
X304800Y336550D02*
D03*
D18*
Y361950D02*
D03*
D19*
X394100Y635000D02*
D03*
X444100D02*
D03*
D20*
X342900Y596900D02*
D03*
D21*
X292100D02*
D03*
X482600Y533400D02*
D03*
D22*
Y482600D02*
D03*
D23*
X311150Y422148D02*
D03*
D24*
Y533400D02*
D03*
X361950Y381000D02*
D03*
D25*
X478790D02*
D03*
D26*
X387350Y577850D02*
D03*
M02*
