G04*
G04 #@! TF.GenerationSoftware,Altium Limited,Altium Designer,22.4.2 (48)*
G04*
G04 Layer_Color=128*
%FSLAX44Y44*%
%MOMM*%
G71*
G04*
G04 #@! TF.SameCoordinates,9C8BD881-1EF7-4F66-BDA7-44B266CCAB19*
G04*
G04*
G04 #@! TF.FilePolarity,Positive*
G04*
G01*
G75*
%ADD12C,0.1270*%
D12*
X417900Y723900D02*
X429900D01*
X423900Y717900D02*
Y729900D01*
X382900Y723900D02*
X394900D01*
X388900Y717900D02*
Y729900D01*
X382900Y304800D02*
X394900D01*
X388900Y298800D02*
Y310800D01*
X417900Y304800D02*
X429900D01*
X423900Y298800D02*
Y310800D01*
X300990Y336550D02*
X308610D01*
X304800Y332740D02*
Y340360D01*
X300990Y361950D02*
X308610D01*
X304800Y358140D02*
Y365760D01*
X389600Y635000D02*
X398600D01*
X394100Y630500D02*
Y639500D01*
X439600Y635000D02*
X448600D01*
X444100Y630500D02*
Y639500D01*
X339350Y596900D02*
X346450D01*
X342900Y593350D02*
Y600450D01*
X288550Y596900D02*
X295650D01*
X292100Y593350D02*
Y600450D01*
X479050Y482600D02*
X486150D01*
X482600Y479050D02*
Y486150D01*
X479050Y533400D02*
X486150D01*
X482600Y529850D02*
Y536950D01*
X306832Y422148D02*
X315468D01*
X311150Y417830D02*
Y426466D01*
X306832Y533400D02*
X315468D01*
X311150Y529082D02*
Y537718D01*
X474472Y381000D02*
X483108D01*
X478790Y376682D02*
Y385318D01*
X357632Y381000D02*
X366268D01*
X361950Y376682D02*
Y385318D01*
X385850Y577850D02*
X388850D01*
X387350Y576350D02*
Y579350D01*
M02*
