G04*
G04 #@! TF.GenerationSoftware,Altium Limited,Altium Designer,22.4.2 (48)*
G04*
G04 Layer_Color=2752767*
%FSLAX44Y44*%
%MOMM*%
G71*
G04*
G04 #@! TF.SameCoordinates,9C8BD881-1EF7-4F66-BDA7-44B266CCAB19*
G04*
G04*
G04 #@! TF.FilePolarity,Positive*
G04*
G01*
G75*
%ADD12C,0.1270*%
%ADD38C,0.1693*%
D12*
X418820Y718820D02*
Y728980D01*
X428980D01*
Y718820D01*
X418820D01*
X383820D02*
Y728980D01*
X393980D01*
Y718820D01*
X383820D01*
Y299720D02*
Y309880D01*
X393980D01*
Y299720D01*
X383820D01*
X418820D02*
Y309880D01*
X428980D01*
Y299720D01*
X418820D01*
X394100Y629920D02*
X389020Y640080D01*
X399180D01*
X394100Y629920D01*
X444100D02*
X439020Y640080D01*
X449180D01*
X444100Y629920D01*
X342900Y591820D02*
X345440Y594360D01*
X347980D01*
X345440Y596900D01*
X347980Y599440D01*
X345440D01*
X342900Y601980D01*
X340360Y599440D01*
X337820D01*
X340360Y596900D01*
X337820Y594360D01*
X340360D01*
X342900Y591820D01*
X292100D02*
X294640Y594360D01*
X297180D01*
X294640Y596900D01*
X297180Y599440D01*
X294640D01*
X292100Y601980D01*
X289560Y599440D01*
X287020D01*
X289560Y596900D01*
X287020Y594360D01*
X289560D01*
X292100Y591820D01*
X482600Y477520D02*
X485140Y480060D01*
X487680D01*
X485140Y482600D01*
X487680Y485140D01*
X485140D01*
X482600Y487680D01*
X480060Y485140D01*
X477520D01*
X480060Y482600D01*
X477520Y480060D01*
X480060D01*
X482600Y477520D01*
Y528320D02*
X485140Y530860D01*
X487680D01*
X485140Y533400D01*
X487680Y535940D01*
X485140D01*
X482600Y538480D01*
X480060Y535940D01*
X477520D01*
X480060Y533400D01*
X477520Y530860D01*
X480060D01*
X482600Y528320D01*
X306070Y417068D02*
X308610Y422148D01*
X306070Y427228D01*
X311150Y424688D01*
X316230Y427228D01*
X313690Y422148D01*
X316230Y417068D01*
X311150Y419608D01*
X306070Y417068D01*
Y528320D02*
X308610Y533400D01*
X306070Y538480D01*
X311150Y535940D01*
X316230Y538480D01*
X313690Y533400D01*
X316230Y528320D01*
X311150Y530860D01*
X306070Y528320D01*
X473710Y375920D02*
X476250Y381000D01*
X473710Y386080D01*
X478790Y383540D01*
X483870Y386080D01*
X481330Y381000D01*
X483870Y375920D01*
X478790Y378460D01*
X473710Y375920D01*
X356870D02*
X359410Y381000D01*
X356870Y386080D01*
X361950Y383540D01*
X367030Y386080D01*
X364490Y381000D01*
X367030Y375920D01*
X361950Y378460D01*
X356870Y375920D01*
X384810Y575310D02*
Y572770D01*
X389890D01*
Y575310D01*
X392430D01*
Y580390D01*
X389890D01*
Y582930D01*
X384810D01*
Y580390D01*
X382270D01*
Y575310D01*
X384810D01*
D38*
X309880Y336550D02*
G03*
X309880Y336550I-5080J0D01*
G01*
Y361950D02*
G03*
X309880Y361950I-5080J0D01*
G01*
M02*
