G04*
G04 #@! TF.GenerationSoftware,Altium Limited,Altium Designer,22.4.2 (48)*
G04*
G04 Layer_Physical_Order=1*
G04 Layer_Color=255*
%FSLAX44Y44*%
%MOMM*%
G71*
G04*
G04 #@! TF.SameCoordinates,B87C930E-3C0E-449F-A056-968C23854222*
G04*
G04*
G04 #@! TF.FilePolarity,Positive*
G04*
G01*
G75*
%ADD14R,0.4572X1.5240*%
%ADD23R,1.3716X1.3716*%
%ADD24C,1.3716*%
%ADD25R,1.3716X1.3716*%
%ADD27C,0.3000*%
%ADD28C,1.8000*%
%ADD29R,1.8000X1.8000*%
%ADD30R,1.2700X1.2700*%
%ADD31C,1.2700*%
%ADD32C,1.3500*%
%ADD33R,1.0600X1.0600*%
%ADD34C,1.0600*%
%ADD35R,1.0600X1.0600*%
%ADD36C,0.6000*%
D14*
X396650Y487553D02*
D03*
X403150D02*
D03*
X409650D02*
D03*
X416150D02*
D03*
Y528447D02*
D03*
X409650D02*
D03*
X403150D02*
D03*
X396650D02*
D03*
D23*
X311150Y422148D02*
D03*
D24*
Y533400D02*
D03*
X361950Y381000D02*
D03*
D25*
X478790D02*
D03*
D27*
X349400Y425600D02*
X361950D01*
X323850Y400050D02*
X349400Y425600D01*
X361950Y381000D02*
Y425600D01*
X374650Y482600D02*
X395864D01*
X396650Y483386D02*
Y487553D01*
X368300Y488950D02*
X374650Y482600D01*
X395864D02*
X396650Y483386D01*
X482600Y450850D02*
Y482600D01*
X388900Y681000D02*
Y723900D01*
X355600Y647700D02*
X388900Y681000D01*
X355600Y628650D02*
Y647700D01*
Y622300D02*
Y628650D01*
X361950Y635000D01*
X394100D01*
X368300Y590550D02*
Y609600D01*
X355600Y622300D02*
X368300Y609600D01*
X361950Y596900D02*
X368300Y590550D01*
X342900Y596900D02*
X361950D01*
X444100Y577450D02*
Y635000D01*
X416150Y549500D02*
X444100Y577450D01*
X416150Y528447D02*
Y549500D01*
X409650Y528447D02*
Y555550D01*
X403150Y562050D02*
X409650Y555550D01*
X403150Y528447D02*
Y562050D01*
X396650Y528447D02*
Y540864D01*
X368300Y569214D02*
X396650Y540864D01*
X387350Y577850D02*
X403150Y562050D01*
X368300Y569214D02*
Y590550D01*
Y488950D02*
Y569214D01*
X403150Y466800D02*
Y487553D01*
X361950Y425600D02*
X403150Y466800D01*
X317500Y400050D02*
X323850D01*
X311150Y406400D02*
X317500Y400050D01*
X311150Y406400D02*
Y422148D01*
X304800Y381000D02*
X323850Y400050D01*
X304800Y361950D02*
Y381000D01*
Y336550D02*
X349250D01*
X368300Y355600D01*
X450850D01*
X462775Y343675D01*
X423900Y304800D02*
X462775Y343675D01*
X478790Y359690D01*
Y381000D01*
Y429260D01*
X469900Y438150D02*
X478790Y429260D01*
X444500Y438150D02*
X469900D01*
X416150Y466500D02*
X444500Y438150D01*
X416150Y466500D02*
Y487553D01*
X469900Y438150D02*
X482600Y450850D01*
D28*
X423900Y723900D02*
D03*
X388900Y304800D02*
D03*
D29*
Y723900D02*
D03*
X423900Y304800D02*
D03*
D30*
X304800Y336550D02*
D03*
D31*
Y361950D02*
D03*
D32*
X394100Y635000D02*
D03*
X444100D02*
D03*
D33*
X342900Y596900D02*
D03*
D34*
X292100D02*
D03*
X482600Y533400D02*
D03*
D35*
Y482600D02*
D03*
D36*
X387350Y577850D02*
D03*
M02*
